<svg width="17" height="17" viewBox="0 0 17 17" fill="none" xmlns="http://www.w3.org/2000/svg">
<path d="M6.94399 10.0556V9.29442C6.94399 8.99957 6.72457 8.85557 6.45714 8.97214L3.02171 10.4533C2.47999 10.6864 2.04114 10.3984 2.04114 9.81557V8.91042C2.04114 8.44414 2.39085 7.90242 2.82285 7.72414L6.73142 6.04414C6.84114 5.98928 6.93714 5.84528 6.93714 5.72185V3.62357C6.93714 2.96528 7.424 2.17671 8.00685 1.87499C8.21257 1.77214 8.45942 1.77214 8.66514 1.87499C9.25485 2.17671 9.74171 2.95842 9.74171 3.61671V5.71499C9.74171 5.83842 9.83771 5.98242 9.94742 6.03728L10.6606 6.33899L6.94399 10.0556Z" fill="white"/>
<path d="M14.6445 8.91078V9.81593C14.6445 10.3988 14.2057 10.6868 13.6639 10.4536L10.2285 8.9725C9.95423 8.86278 9.74166 8.99993 9.74166 9.29478V11.2902C9.74166 11.4479 9.8308 11.6742 9.94737 11.7839L11.5382 13.3816C11.7028 13.5462 11.7782 13.8754 11.7028 14.1016L11.3942 15.0342C11.2571 15.4388 10.7977 15.6239 10.4205 15.4388L8.78852 14.0674C8.54166 13.8548 8.13709 13.8548 7.89023 14.0674L6.25823 15.4388C5.88109 15.6308 5.42166 15.4388 5.29823 15.0342L4.98966 14.1016C4.91423 13.8685 4.98966 13.5462 5.15423 13.3816L6.74509 11.7839C6.8548 11.6742 6.94395 11.4479 6.94395 11.2902V10.0559L10.6605 6.33936L13.8628 7.71764C14.2948 7.90278 14.6445 8.4445 14.6445 8.91078Z" fill="white"/>
</svg>
