<svg width="16" height="16" viewBox="0 0 16 16" fill="none" xmlns="http://www.w3.org/2000/svg">
<path d="M6.78747 1.91992C2.74523 1.91992 0.319946 5.16248 0.319946 6.78392C0.319946 8.40536 1.12827 9.62136 2.74523 9.62136C4.36219 9.62136 5.17083 10.0265 5.17083 11.2425C5.17083 12.8636 6.38331 14.0796 8.00027 14.0796C13.2553 14.0796 15.6803 11.2425 15.6803 8.40536C15.6799 3.54136 11.6371 1.91992 6.78747 1.91992ZM5.77691 3.54136C5.90978 3.54153 6.04133 3.56787 6.16402 3.61887C6.28672 3.66988 6.39817 3.74455 6.49201 3.83863C6.58585 3.9327 6.66024 4.04434 6.71093 4.16717C6.76163 4.29 6.78763 4.42161 6.78747 4.55448C6.78747 5.11448 6.33499 5.56792 5.77691 5.56792C5.21883 5.56792 4.76635 5.11416 4.76635 4.55448C4.76618 4.42161 4.79218 4.29 4.84288 4.16717C4.89357 4.04434 4.96796 3.9327 5.0618 3.83863C5.15564 3.74455 5.26709 3.66988 5.38979 3.61887C5.51249 3.56787 5.64403 3.54153 5.77691 3.54136ZM9.01019 3.54136C9.14306 3.54153 9.27461 3.56787 9.3973 3.61887C9.52 3.66988 9.63145 3.74455 9.72529 3.83863C9.81913 3.9327 9.89352 4.04434 9.94421 4.16717C9.99491 4.29 10.0209 4.42161 10.0207 4.55448C10.021 4.68739 9.99498 4.81903 9.94431 4.94189C9.89363 5.06476 9.81925 5.17643 9.7254 5.27054C9.63156 5.36465 9.5201 5.43935 9.39738 5.49038C9.27466 5.5414 9.14309 5.56775 9.01019 5.56792C8.87731 5.56771 8.74578 5.54133 8.62309 5.49029C8.50041 5.43924 8.38898 5.36454 8.29518 5.27043C8.20137 5.17632 8.12701 5.06466 8.07636 4.94182C8.0257 4.81898 7.99974 4.68736 7.99995 4.55448C7.99961 4.28618 8.10584 4.02873 8.29529 3.83874C8.48474 3.64875 8.74189 3.54179 9.01019 3.54136ZM12.2441 5.16248C12.377 5.16261 12.5086 5.18893 12.6314 5.23993C12.7542 5.29094 12.8657 5.36563 12.9595 5.45975C13.0534 5.55386 13.1278 5.66555 13.1785 5.78844C13.2292 5.91132 13.2552 6.04299 13.255 6.17592C13.2552 6.30884 13.2292 6.44049 13.1785 6.56336C13.1278 6.68622 13.0534 6.79789 12.9595 6.89198C12.8656 6.98607 12.7541 7.06074 12.6314 7.11171C12.5086 7.16268 12.377 7.18896 12.2441 7.18904C12.1112 7.18892 11.9797 7.1626 11.857 7.11161C11.7343 7.06062 11.6228 6.98594 11.529 6.89185C11.4352 6.79776 11.3608 6.6861 11.3102 6.56326C11.2596 6.44042 11.2336 6.30879 11.2339 6.17592C11.2336 6.04303 11.2595 5.9114 11.3102 5.78854C11.3608 5.66567 11.4352 5.554 11.529 5.45988C11.6228 5.36577 11.7343 5.29106 11.857 5.24003C11.9797 5.189 12.1112 5.16265 12.2441 5.16248ZM2.94747 5.97336C3.08031 5.97349 3.21183 5.99979 3.33451 6.05076C3.45719 6.10174 3.56862 6.17638 3.66244 6.27044C3.75626 6.3645 3.83062 6.47612 3.88128 6.59892C3.93195 6.72173 3.95792 6.85332 3.95771 6.98616C3.95771 7.54616 3.50523 7.9996 2.94747 7.9996C2.38971 7.9996 1.93691 7.54584 1.93691 6.98616C1.93665 6.71786 2.04297 6.46044 2.23248 6.27051C2.42198 6.08059 2.67917 5.9737 2.94747 5.97336ZM7.99995 10.0265C8.66971 10.0265 9.21243 10.5705 9.21243 11.2428C9.21243 11.9142 8.66971 12.4585 7.99995 12.4585C7.33019 12.4585 6.78747 11.9142 6.78747 11.2428C6.78717 11.0833 6.81831 10.9253 6.87909 10.7779C6.93987 10.6304 7.02911 10.4964 7.1417 10.3834C7.2543 10.2705 7.38805 10.1808 7.53531 10.1196C7.68257 10.0583 7.84046 10.0267 7.99995 10.0265Z" fill="white"/>
</svg>
