<svg width="16" height="16" viewBox="0 0 16 16" fill="none" xmlns="http://www.w3.org/2000/svg">
<path d="M12.168 12.3159C13.2216 11.3015 13.8667 9.93595 13.981 8.47787C13.418 8.13336 12.7787 7.93321 12.1198 7.89518C11.4609 7.85715 10.8028 7.98242 10.204 8.25987C11.1106 9.47469 11.7772 10.8513 12.168 12.3159ZM11.308 13.0069C10.9659 11.4788 10.2995 10.042 9.35399 8.79387C8.60593 9.4067 8.10507 10.2697 7.94403 11.2232C7.78299 12.1768 7.97267 13.1564 8.47799 13.9809C9.48863 13.9013 10.4625 13.5662 11.308 13.0069ZM7.33799 13.9639C6.88091 12.9606 6.76811 11.8344 7.01713 10.7603C7.26615 9.68632 7.86303 8.72466 8.71499 8.02487C8.47606 7.7624 8.22478 7.51145 7.96199 7.27287C7.26351 8.12262 6.3044 8.71843 5.23313 8.96808C4.16186 9.21773 3.03817 9.10729 2.03599 8.65387C2.18261 10.0117 2.79 11.2784 3.75699 12.2429C4.71954 13.2079 5.98309 13.8148 7.33799 13.9629V13.9639ZM2.01999 7.51687C2.84387 8.01762 3.82083 8.20413 4.77123 8.04208C5.72164 7.88004 6.5816 7.38034 7.19299 6.63487C5.94769 5.69491 4.5156 5.0324 2.99299 4.69187C2.4348 5.53602 2.10002 6.50803 2.01999 7.51687ZM3.68499 3.83187C5.14393 4.2213 6.51559 4.8844 7.72699 5.78587C8.00389 5.18897 8.12958 4.53309 8.09295 3.87611C8.05633 3.21914 7.85852 2.58129 7.51699 2.01887C6.06102 2.13462 4.69785 2.77956 3.68499 3.83187ZM8.65499 2.03587C9.28899 3.43487 9.24499 5.06587 8.52299 6.43187C8.88802 6.7552 9.2333 7.10016 9.55699 7.46487C10.2334 7.10907 10.9823 6.91265 11.7463 6.89064C12.5103 6.86863 13.2692 7.0216 13.965 7.33787C13.8164 5.98319 13.2091 4.72001 12.244 3.75787C11.2799 2.79071 10.0136 2.18298 8.65599 2.03587H8.65499ZM12.95 12.9499C12.2999 13.5999 11.5282 14.1156 10.6789 14.4674C9.82959 14.8192 8.91929 15.0002 7.99999 15.0002C7.08069 15.0002 6.17039 14.8192 5.32107 14.4674C4.47175 14.1156 3.70003 13.5999 3.04999 12.9499C2.39995 12.2998 1.88431 11.5281 1.5325 10.6788C1.1807 9.82947 0.999634 8.91917 0.999634 7.99987C0.999634 7.08057 1.1807 6.17027 1.5325 5.32095C1.88431 4.47163 2.39995 3.69991 3.04999 3.04987C4.36281 1.73705 6.14338 0.999512 7.99999 0.999512C9.8566 0.999512 11.6372 1.73705 12.95 3.04987C14.2628 4.36269 15.0003 6.14326 15.0003 7.99987C15.0003 9.85648 14.2628 11.637 12.95 12.9499Z" fill="#2FA6A7"/>
</svg>
