<svg width="16" height="16" viewBox="0 0 16 16" fill="none" xmlns="http://www.w3.org/2000/svg">
<path d="M8.00004 5.3335C6.55471 5.3335 5.33337 6.55483 5.33337 8.00016C5.33337 9.4455 6.55471 10.6668 8.00004 10.6668C9.44537 10.6668 10.6667 9.4455 10.6667 8.00016C10.6667 6.55483 9.44537 5.3335 8.00004 5.3335ZM8.00004 9.3335C7.29004 9.3335 6.66671 8.71016 6.66671 8.00016C6.66671 7.29016 7.29004 6.66683 8.00004 6.66683C8.71004 6.66683 9.33337 7.29016 9.33337 8.00016C9.33337 8.71016 8.71004 9.3335 8.00004 9.3335Z" fill="#2FA6A7"/>
<path d="M13.3334 3.3335H11.6094L9.80471 1.52883C9.7429 1.4668 9.66944 1.41761 9.58855 1.38409C9.50766 1.35056 9.42094 1.33337 9.33337 1.3335H6.66671C6.57914 1.33337 6.49242 1.35056 6.41153 1.38409C6.33064 1.41761 6.25718 1.4668 6.19537 1.52883L4.39071 3.3335H2.66671C1.93137 3.3335 1.33337 3.9315 1.33337 4.66683V12.0002C1.33337 12.7355 1.93137 13.3335 2.66671 13.3335H13.3334C14.0687 13.3335 14.6667 12.7355 14.6667 12.0002V4.66683C14.6667 3.9315 14.0687 3.3335 13.3334 3.3335ZM2.66671 12.0002V4.66683H4.66671C4.84404 4.66683 5.01337 4.59683 5.13804 4.4715L6.94271 2.66683H9.05737L10.862 4.4715C10.9238 4.53352 10.9973 4.58272 11.0782 4.61624C11.1591 4.64976 11.2458 4.66696 11.3334 4.66683H13.3334L13.3347 12.0002H2.66671Z" fill="#2FA6A7"/>
</svg>
