<svg width="16" height="16" viewBox="0 0 16 16" fill="none" xmlns="http://www.w3.org/2000/svg">
<path d="M13.888 3.03667C13.955 2.93627 13.9935 2.81956 13.9993 2.69901C14.0052 2.57846 13.9782 2.45858 13.9213 2.35216C13.8643 2.24574 13.7796 2.15677 13.676 2.09475C13.5725 2.03273 13.4541 1.99998 13.3334 2H2.66669C2.5461 2.00006 2.42778 2.03283 2.32435 2.09482C2.22091 2.15681 2.13622 2.24569 2.0793 2.352C2.02238 2.45831 1.99537 2.57807 2.00113 2.69852C2.00689 2.81897 2.04522 2.93561 2.11202 3.036L7.33336 10.8687V13.3333H5.33336V14.6667H10.6667V13.3333H8.66669V10.8687L13.888 3.03667ZM8.00002 9.46467L5.69002 6H10.31L8.00002 9.46467ZM12.088 3.33333L11.1994 4.66667H4.80069L3.91202 3.33333H12.088Z" fill="#39AAAB"/>
</svg>
