<svg width="17" height="17" viewBox="0 0 17 17" fill="none" xmlns="http://www.w3.org/2000/svg">
<path d="M7.79163 1.41699H6.37496C2.83329 1.41699 1.41663 2.83366 1.41663 6.37533V10.6253C1.41663 14.167 2.83329 15.5837 6.37496 15.5837H10.625C14.1666 15.5837 15.5833 14.167 15.5833 10.6253V9.20866" stroke="#2FA6A7" stroke-width="1.2" stroke-linecap="round" stroke-linejoin="round"/>
<path d="M11.3611 2.13874L5.77943 7.7204C5.56693 7.9329 5.35443 8.35082 5.31193 8.6554L5.00734 10.7875C4.89401 11.5596 5.43943 12.0979 6.21151 11.9917L8.34359 11.6871C8.64109 11.6446 9.05901 11.4321 9.27859 11.2196L14.8603 5.6379C15.8236 4.67457 16.2769 3.5554 14.8603 2.13874C13.4436 0.722069 12.3244 1.1754 11.3611 2.13874Z" stroke="#2FA6A7" stroke-width="1.2" stroke-miterlimit="10" stroke-linecap="round" stroke-linejoin="round"/>
<path d="M10.5623 2.93945C11.0368 4.63237 12.3614 5.95695 14.0614 6.43862" stroke="#2FA6A7" stroke-width="1.2" stroke-miterlimit="10" stroke-linecap="round" stroke-linejoin="round"/>
</svg>
