<svg width="16" height="16" viewBox="0 0 16 16" fill="none" xmlns="http://www.w3.org/2000/svg">
<path d="M3.75494 13.0001C3.51179 13.0006 3.26967 12.9686 3.03494 12.9051C2.3304 12.7042 1.73266 12.2352 1.36998 11.5986C1.00729 10.962 0.908554 10.2087 1.09494 9.50014L2.25994 5.08014C2.35067 4.72243 2.51197 4.38645 2.73435 4.09194C2.95674 3.79743 3.23573 3.55033 3.55494 3.36514C3.86576 3.18512 4.2092 3.06856 4.56539 3.02221C4.92157 2.97586 5.28341 3.00065 5.62994 3.09514C5.99832 3.19744 6.34142 3.37515 6.6375 3.617C6.93358 3.85886 7.17619 4.1596 7.34994 4.50014H8.64994C8.82294 4.15905 9.06531 3.85788 9.36151 3.61592C9.6577 3.37397 10.0012 3.19659 10.3699 3.09514C10.7165 3.00065 11.0783 2.97586 11.4345 3.02221C11.7907 3.06856 12.1341 3.18512 12.4449 3.36514C12.7626 3.54985 13.0406 3.7956 13.2628 4.08823C13.4851 4.38085 13.6472 4.71457 13.7399 5.07014L14.9049 9.50014C15.0941 10.2107 14.9962 10.9672 14.6322 11.6062C14.2683 12.2452 13.6676 12.7153 12.9599 12.9151C12.6134 13.0096 12.2516 13.0344 11.8954 12.9881C11.5392 12.9417 11.1958 12.8252 10.8849 12.6451C10.5668 12.4611 10.2884 12.2155 10.0661 11.9228C9.84372 11.6301 9.68187 11.296 9.58994 10.9401L9.49994 10.5001H6.49994L6.38494 10.9301C6.29302 11.286 6.13117 11.6201 5.90883 11.9128C5.6865 12.2055 5.40813 12.4511 5.08994 12.6351C4.68368 12.8695 4.22391 12.9952 3.75494 13.0001ZM4.91494 4.00014C4.61321 4.00117 4.3169 4.08041 4.05494 4.23014C3.64437 4.47103 3.34594 4.86475 3.22494 5.32514L2.05994 9.74514C1.93804 10.2005 1.99964 10.6855 2.2315 11.096C2.46337 11.5064 2.847 11.8095 3.29994 11.9401C3.5187 11.9998 3.74711 12.0155 3.97197 11.9863C4.19683 11.9572 4.41367 11.8837 4.60994 11.7701C4.8143 11.6522 4.993 11.4945 5.13553 11.3065C5.27807 11.1184 5.38157 10.9038 5.43994 10.6751L5.74994 9.50014H10.2499L10.5549 10.6751C10.6144 10.9033 10.7183 11.1175 10.8607 11.3055C11.0031 11.4934 11.1813 11.6513 11.3849 11.7701C11.5822 11.8836 11.7999 11.957 12.0255 11.9861C12.2512 12.0153 12.4803 11.9997 12.6999 11.9401C13.1534 11.8107 13.5375 11.5076 13.7688 11.0966C14 10.6856 14.0597 10.1999 13.9349 9.74514L12.7699 5.32514C12.7119 5.09704 12.6091 4.88276 12.4674 4.69477C12.3258 4.50679 12.1482 4.34885 11.9449 4.23014C11.7477 4.11673 11.53 4.04333 11.3044 4.01416C11.0787 3.98499 10.8495 4.00061 10.6299 4.06014C10.3584 4.13756 10.1092 4.27865 9.90308 4.4717C9.69699 4.66476 9.53992 4.9042 9.44494 5.17014L9.32494 5.50014H6.67494L6.55494 5.17014C6.45912 4.90384 6.30118 4.66423 6.09422 4.47119C5.88726 4.27815 5.63726 4.13723 5.36494 4.06014C5.21821 4.02058 5.06692 4.0004 4.91494 4.00014Z" fill="#2FA6A7"/>
<path d="M5 8C4.80222 8 4.60888 7.94135 4.44443 7.83147C4.27998 7.72159 4.15181 7.56541 4.07612 7.38268C4.00043 7.19996 3.98063 6.99889 4.01922 6.80491C4.0578 6.61093 4.15304 6.43275 4.29289 6.29289C4.43275 6.15304 4.61093 6.0578 4.80491 6.01922C4.99889 5.98063 5.19996 6.00043 5.38268 6.07612C5.56541 6.15181 5.72159 6.27998 5.83147 6.44443C5.94135 6.60888 6 6.80222 6 7C6 7.26522 5.89464 7.51957 5.70711 7.70711C5.51957 7.89464 5.26522 8 5 8Z" fill="#2FA6A7"/>
<path d="M11 6.5C11.2761 6.5 11.5 6.27614 11.5 6C11.5 5.72386 11.2761 5.5 11 5.5C10.7239 5.5 10.5 5.72386 10.5 6C10.5 6.27614 10.7239 6.5 11 6.5Z" fill="#2FA6A7"/>
<path d="M11 8.5C11.2761 8.5 11.5 8.27614 11.5 8C11.5 7.72386 11.2761 7.5 11 7.5C10.7239 7.5 10.5 7.72386 10.5 8C10.5 8.27614 10.7239 8.5 11 8.5Z" fill="#2FA6A7"/>
<path d="M10 7.5C10.2761 7.5 10.5 7.27614 10.5 7C10.5 6.72386 10.2761 6.5 10 6.5C9.72386 6.5 9.5 6.72386 9.5 7C9.5 7.27614 9.72386 7.5 10 7.5Z" fill="#2FA6A7"/>
<path d="M12 7.5C12.2761 7.5 12.5 7.27614 12.5 7C12.5 6.72386 12.2761 6.5 12 6.5C11.7239 6.5 11.5 6.72386 11.5 7C11.5 7.27614 11.7239 7.5 12 7.5Z" fill="#2FA6A7"/>
</svg>
