<svg width="33" height="35" viewBox="0 0 33 35" fill="none" xmlns="http://www.w3.org/2000/svg">
<g clip-path="url(#clip0_131_6139)">
<path d="M31.7234 14.5895L18.3999 14.5889C17.8116 14.5889 17.3347 15.0779 17.3347 15.6813V20.0467C17.3347 20.65 17.8116 21.1392 18.3999 21.1392H25.9028C25.0812 23.326 23.5478 25.1574 21.5914 26.3211L24.7906 32.0013C29.9226 28.9571 32.9567 23.6159 32.9567 17.6367C32.9567 16.7854 32.8955 16.1768 32.7731 15.4915C32.6801 14.9709 32.2394 14.5895 31.7234 14.5895Z" fill="#167EE6"/>
<path d="M16.6241 27.6976C12.9523 27.6976 9.74686 25.64 8.02529 22.5952L2.4873 25.8691C5.30555 30.8788 10.585 34.2523 16.6241 34.2523C19.5866 34.2523 22.382 33.4342 24.7901 32.0085V32.0007L21.5909 26.3205C20.1275 27.191 18.4341 27.6976 16.6241 27.6976Z" fill="#12B347"/>
<path d="M24.7903 32.0088V32.001L21.5911 26.3208C20.1277 27.1913 18.4344 27.698 16.6243 27.698V34.2527C19.5868 34.2527 22.3824 33.4346 24.7903 32.0088Z" fill="#0F993E"/>
<path d="M6.68306 17.5019C6.68306 15.6456 7.17698 13.909 8.02555 12.4082L2.48756 9.13428C1.08983 11.5963 0.292236 14.4556 0.292236 17.5019C0.292236 20.5482 1.08983 23.4075 2.48756 25.8696L8.02555 22.5957C7.17698 21.0948 6.68306 19.3582 6.68306 17.5019Z" fill="#FFD500"/>
<path d="M16.6241 7.30567C19.0184 7.30567 21.2178 8.17828 22.9357 9.62978C23.3595 9.98783 23.9754 9.96199 24.3636 9.56383L27.3793 6.47081C27.8198 6.01906 27.7884 5.2796 27.3179 4.86096C24.4397 2.29997 20.6948 0.750977 16.6241 0.750977C10.585 0.750977 5.30555 4.12451 2.4873 9.1342L8.02529 12.4081C9.74686 9.36328 12.9523 7.30567 16.6241 7.30567Z" fill="#FF4B26"/>
<path d="M22.9359 9.62978C23.3597 9.98783 23.9757 9.96199 24.3638 9.56383L27.3795 6.47081C27.8199 6.01906 27.7885 5.2796 27.3181 4.86096C24.4399 2.29991 20.695 0.750977 16.6243 0.750977V7.30567C19.0186 7.30567 21.218 8.17828 22.9359 9.62978Z" fill="#D93F21"/>
</g>
<defs>
<clipPath id="clip0_131_6139">
<rect width="32.6642" height="33.5017" fill="white" transform="translate(0.292236 0.750977)"/>
</clipPath>
</defs>
</svg>
