<svg width="22" height="22" viewBox="0 0 22 22" fill="none" xmlns="http://www.w3.org/2000/svg">
<path d="M9.05002 1.53028L3.03002 5.46028C1.10002 6.72028 1.10002 9.54028 3.03002 10.8003L9.05002 14.7303C10.13 15.4403 11.91 15.4403 12.99 14.7303L18.98 10.8003C20.9 9.54028 20.9 6.73028 18.98 5.47028L12.99 1.54028C11.91 0.82028 10.13 0.82028 9.05002 1.53028Z" stroke="#2FA6A7" stroke-width="1.5" stroke-linecap="round" stroke-linejoin="round"/>
<path d="M4.63012 12.0801L4.62012 16.7701C4.62012 18.0401 5.60012 19.4001 6.80012 19.8001L9.99012 20.8601C10.5401 21.0401 11.4501 21.0401 12.0101 20.8601L15.2001 19.8001C16.4001 19.4001 17.3801 18.0401 17.3801 16.7701V12.1301" stroke="#2FA6A7" stroke-width="1.5" stroke-linecap="round" stroke-linejoin="round"/>
<path d="M20.3999 14V8" stroke="#2FA6A7" stroke-width="1.5" stroke-linecap="round" stroke-linejoin="round"/>
</svg>
