<svg width="34" height="34" viewBox="0 0 34 34" fill="none" xmlns="http://www.w3.org/2000/svg">
<path fill-rule="evenodd" clip-rule="evenodd" d="M4.20456e-07 2.84055C4.20456e-07 2.08719 0.299271 1.36469 0.831977 0.83198C1.36468 0.299275 2.08719 3.78685e-06 2.84055 3.78685e-06H31.1564C31.5297 -0.000605975 31.8995 0.0724283 32.2446 0.214925C32.5897 0.357422 32.9032 0.566582 33.1674 0.830432C33.4315 1.09428 33.641 1.40764 33.7839 1.75256C33.9268 2.09749 34.0002 2.46721 34 2.84055V31.1564C34.0004 31.5298 33.9272 31.8996 33.7845 32.2447C33.6418 32.5898 33.4325 32.9034 33.1686 33.1675C32.9046 33.4316 32.5911 33.6411 32.2461 33.7839C31.9011 33.9268 31.5313 34.0002 31.1579 34H2.84055C2.46739 34 2.09789 33.9265 1.75316 33.7836C1.40843 33.6408 1.09522 33.4314 0.83143 33.1675C0.567641 32.9035 0.35844 32.5902 0.21578 32.2454C0.0731205 31.9006 -0.000202602 31.5311 4.20456e-07 31.1579V2.84055ZM13.4578 12.9633H18.0617V15.2753C18.7263 13.9462 20.4263 12.75 22.9809 12.75C27.8785 12.75 29.0391 15.3974 29.0391 20.2547V29.2524H24.0828V21.3613C24.0828 18.5949 23.4183 17.034 21.7306 17.034C19.3893 17.034 18.4156 18.717 18.4156 21.3613V29.2524H13.4578V12.9633ZM4.95782 29.0406H9.91564V12.75H4.95782V29.0391V29.0406ZM10.625 7.43673C10.6343 7.86122 10.5588 8.28331 10.4028 8.67822C10.2468 9.07312 10.0135 9.43289 9.71663 9.73642C9.41972 10.0399 9.06517 10.2811 8.67379 10.4457C8.28242 10.6104 7.8621 10.6952 7.4375 10.6952C7.0129 10.6952 6.59258 10.6104 6.20121 10.4457C5.80983 10.2811 5.45528 10.0399 5.15837 9.73642C4.86146 9.43289 4.62816 9.07312 4.47218 8.67822C4.31619 8.28331 4.24065 7.86122 4.25 7.43673C4.26835 6.60351 4.61223 5.81059 5.208 5.22779C5.80378 4.64499 6.60407 4.31865 7.4375 4.31865C8.27093 4.31865 9.07122 4.64499 9.667 5.22779C10.2628 5.81059 10.6067 6.60351 10.625 7.43673Z" fill="#2FA6A7"/>
</svg>
