<svg width="135" height="127" viewBox="0 0 135 127" fill="none" xmlns="http://www.w3.org/2000/svg">
<path d="M49.5352 101.41L70.0018 100.24L97.4856 52.8745L96.3161 100.825" stroke="white" stroke-width="3"/>
<path d="M69.417 99.0708L84.6208 123.631" stroke="white" stroke-width="3"/>
<path d="M96.3159 102.579H120.876V3.16943" stroke="white" stroke-width="3"/>
<path d="M120.876 101.41L132.572 122.461" stroke="white" stroke-width="3"/>
<path d="M1 24.8057H24.9752L37.2552 2" stroke="white" stroke-width="3"/>
<path d="M24.3906 23.6362L57.1373 83.2819L72.3411 53.4591" stroke="white" stroke-width="3"/>
<path d="M41.3487 88.5448L24.3906 52.2896V123.63" stroke="white" stroke-width="3"/>
<path d="M2.7542 124.8H29.6532L40.179 101.994V85.621L59.4761 123.046H84.6209L95.7313 101.994L107.427 123.046H133.156V21.2971L121.461 3.75429H99.8247L71.1713 55.7981L37.2551 2H14.4494L2.16943 24.221L2.7542 124.8Z" stroke="white" stroke-width="3"/>
</svg>
