<svg width="33" height="20" viewBox="0 0 33 20" fill="none" xmlns="http://www.w3.org/2000/svg">
<path d="M5.26499 2.58148C5.26499 1.87587 5.51509 1.26923 6.01529 0.761535C6.52411 0.253844 7.13642 -1.13053e-06 7.85221 -1.09924e-06C8.55939 -1.06833e-06 9.16307 0.253845 9.66327 0.761535C10.1721 1.26923 10.4265 1.87587 10.4265 2.58148C10.4265 3.28708 10.1721 3.89373 9.66327 4.40142C9.16307 4.90911 8.55939 5.16296 7.85221 5.16296C7.37789 5.16296 6.94237 5.04249 6.54567 4.80155C6.15758 4.56922 5.84712 4.25944 5.61427 3.87222C5.38142 3.48499 5.26499 3.05475 5.26499 2.58148ZM19.7276 2.58148C19.7276 1.87587 19.982 1.26923 20.4908 0.761536C20.9996 0.253845 21.6076 -4.97977e-07 22.3148 -4.67066e-07C23.0219 -4.36154e-07 23.6256 0.253845 24.1258 0.761536C24.6347 1.26923 24.8891 1.87587 24.8891 2.58148C24.8891 3.28708 24.6347 3.89373 24.1258 4.40142C23.6256 4.90911 23.0219 5.16296 22.3148 5.16296C21.8405 5.16296 21.4049 5.04249 21.0082 4.80155C20.6201 4.56922 20.3097 4.25944 20.0768 3.87222C19.844 3.48499 19.7276 3.05475 19.7276 2.58148Z" fill="#F7F7F7"/>
<path d="M16.5065 11.4553C19.7491 11.4553 22.733 11.8813 25.4583 12.7331C28.1835 13.585 30.6974 14.8284 33 16.4634L33 20C32.1462 19.3632 31.0984 18.7695 29.8565 18.2188C28.6147 17.6681 27.2521 17.1862 25.7687 16.7732C24.294 16.3601 22.7632 16.0374 21.1764 15.8051C19.5982 15.5728 18.0416 15.4566 16.5065 15.4566C14.4539 15.4566 12.3755 15.6588 10.2713 16.0632C8.16699 16.4677 6.21364 17.0141 4.41121 17.7025C2.60878 18.3909 1.13838 19.1567 -8.74228e-07 20L-7.19637e-07 16.4634C2.30263 14.8284 4.81654 13.585 7.54175 12.7331C10.267 11.8813 13.2552 11.4553 16.5065 11.4553Z" fill="#F7F7F7"/>
</svg>
