<svg width="16" height="16" viewBox="0 0 16 16" fill="none" xmlns="http://www.w3.org/2000/svg">
<g clip-path="url(#clip0_199_6215)">
<path d="M2.36251 3.08762C2.33141 3.10742 2.30257 3.13055 2.27651 3.15662L0.821512 4.61162C0.61884 4.81469 0.504267 5.08938 0.502582 5.37628C0.500898 5.66317 0.612238 5.93919 0.812512 6.14462L0.822012 6.15462L0.867012 6.20412L1.04001 6.39112C1.19001 6.55262 1.40551 6.78512 1.67151 7.06812C2.35215 7.7933 3.04036 8.51134 3.73601 9.22212C5.32001 10.8386 7.22251 12.6881 8.35601 13.4501C9.63251 14.3121 10.7925 14.7976 11.6395 15.0681C12.0635 15.2031 12.4085 15.2851 12.652 15.3331C12.7727 15.3571 12.8941 15.3773 13.016 15.3936L13.0335 15.3956C13.371 15.4491 13.6695 15.4586 13.935 15.4031C14.1963 15.3516 14.4362 15.2229 14.6235 15.0336L14.9735 14.6836C14.9995 14.6576 15.022 14.6291 15.0415 14.5991C15.1993 14.456 15.3253 14.2814 15.4114 14.0866C15.4975 13.8918 15.5418 13.6811 15.5415 13.4681C15.483 12.8216 14.873 12.4481 14.333 12.1181C14.0612 11.9834 13.8186 11.7965 13.619 11.5681L13.2215 10.6401H13.225C13.3643 10.6401 13.4978 10.5848 13.5962 10.4864C13.6947 10.3879 13.75 10.2544 13.75 10.1151C13.75 9.97588 13.6947 9.84235 13.5962 9.74389C13.4978 9.64544 13.3643 9.59012 13.225 9.59012H12.7715L12.4495 8.83812C12.5632 8.79304 12.6575 8.70971 12.7163 8.6025C12.775 8.49529 12.7946 8.37094 12.7715 8.25088C12.7483 8.13083 12.6841 8.0226 12.5897 7.94488C12.4953 7.86715 12.3768 7.8248 12.2545 7.82512H12.0155L11.7495 7.20462C11.8868 7.19865 12.0163 7.13907 12.1102 7.03866C12.2041 6.93825 12.2548 6.80503 12.2516 6.66762C12.2483 6.5302 12.1913 6.39955 12.0927 6.30373C11.9942 6.2079 11.862 6.15455 11.7245 6.15512H11.3L11.0945 5.67512C11.0635 5.60012 11.0445 5.54612 11.0285 5.50012C10.9619 5.28168 10.8375 5.08528 10.6685 4.93162L10.4085 4.67112C10.2887 4.55578 10.1437 4.46986 9.98501 4.42012V4.19512C9.67251 3.25262 8.53251 2.92412 7.76801 3.49762L6.70401 2.41262C6.79967 2.31608 6.87531 2.20159 6.92658 2.07572C6.97785 1.94985 7.00374 1.8151 7.00277 1.67919C7.00179 1.54329 6.97397 1.40891 6.9209 1.2838C6.86782 1.15868 6.79055 1.04528 6.69351 0.950123C6.40176 0.65936 6.00666 0.496094 5.59476 0.496094C5.18286 0.496094 4.78776 0.65936 4.49601 0.950123L2.36251 3.08762ZM7.09351 7.67762L7.09501 7.30512C7.09501 6.45512 6.76501 5.64512 6.17501 5.04012L4.02001 2.84212L5.20251 1.65812C5.25562 1.60481 5.31949 1.56343 5.38986 1.53677C5.46023 1.5101 5.53548 1.49875 5.61058 1.50349C5.68569 1.50822 5.75891 1.52892 5.82538 1.56421C5.89185 1.5995 5.95002 1.64856 5.99601 1.70812C5.80439 1.90075 5.69682 2.16141 5.69682 2.43312C5.69682 2.70483 5.80439 2.96549 5.99601 3.15812L8.21101 5.37912C8.41108 5.57197 8.67813 5.67972 8.95601 5.67972C9.23389 5.67972 9.50094 5.57197 9.70101 5.37912L9.96101 5.63912C10.022 5.68675 10.0651 5.7535 10.0835 5.82862L10.085 5.83362C10.1065 5.89562 10.133 5.97062 10.175 6.06812L10.212 6.15512H9.74001C9.45001 6.15512 9.21501 6.39012 9.21501 6.68012C9.21644 6.81892 9.27222 6.95162 9.37036 7.04977C9.46851 7.14792 9.60122 7.20369 9.74001 7.20512H10.662L10.9275 7.82512H10.535C10.245 7.82512 10.01 8.06012 10.01 8.35012C10.0114 8.48892 10.0672 8.62162 10.1654 8.71977C10.2635 8.81792 10.3962 8.87369 10.535 8.87512H11.3775L11.6835 9.59012H11.195C10.905 9.59012 10.67 9.82512 10.67 10.1151C10.67 10.2601 10.73 10.3901 10.825 10.4851C10.92 10.5801 11.05 10.6351 11.195 10.6401H12.1335L12.7 11.9631C12.9616 12.4028 13.3497 12.7533 13.8135 12.9691L13.815 12.9701C14.0665 13.1236 14.534 13.4086 14.5465 13.5511C14.5465 13.5791 14.519 13.6646 14.394 13.8046C13.5394 13.6978 12.7007 13.4893 11.8955 13.1836C10.4245 12.6176 8.90401 11.6121 8.33651 9.83312L8.33601 9.83212C8.13351 9.20212 7.67701 8.46862 7.14801 7.75062C7.12991 7.72624 7.11174 7.70191 7.09351 7.67762ZM1.52751 5.44562C1.51513 5.43045 1.50836 5.41146 1.50836 5.39187C1.50836 5.37228 1.51513 5.3533 1.52751 5.33812L2.64501 4.22012C3.31941 4.88117 3.97468 5.56145 4.61001 6.26012C5.21351 6.92512 5.83301 7.65262 6.34251 8.34362C6.85951 9.04512 7.23301 9.66962 7.38351 10.1371C7.40666 10.2101 7.43133 10.2826 7.45751 10.3546L1.52851 5.44662L1.52751 5.44562Z" fill="#38AAAB"/>
</g>
<defs>
<clipPath id="clip0_199_6215">
<rect width="16" height="16" fill="white"/>
</clipPath>
</defs>
</svg>
