<svg width="20" height="20" viewBox="0 0 20 20" fill="none" xmlns="http://www.w3.org/2000/svg">
<path d="M10 20C4.477 20 0 15.523 0 10C0 4.477 4.477 0 10 0C15.523 0 20 4.477 20 10C20 15.523 15.523 20 10 20ZM10 18C12.1217 18 14.1566 17.1571 15.6569 15.6569C17.1571 14.1566 18 12.1217 18 10C18 7.87827 17.1571 5.84344 15.6569 4.34315C14.1566 2.84285 12.1217 2 10 2C7.87827 2 5.84344 2.84285 4.34315 4.34315C2.84285 5.84344 2 7.87827 2 10C2 12.1217 2.84285 14.1566 4.34315 15.6569C5.84344 17.1571 7.87827 18 10 18ZM6.08 13.394C6.02826 13.2732 6.00082 13.1434 5.99925 13.0119C5.99769 12.8805 6.02202 12.7501 6.07086 12.6281C6.11971 12.506 6.1921 12.3948 6.28392 12.3008C6.37574 12.2068 6.48518 12.1317 6.606 12.08C6.72682 12.0283 6.85664 12.0008 6.98806 11.9993C7.11948 11.9977 7.24992 12.022 7.37194 12.0709C7.49395 12.1197 7.60516 12.1921 7.69919 12.2839C7.79323 12.3757 7.86826 12.4852 7.92 12.606C8.09481 13.0127 8.385 13.3592 8.75469 13.6027C9.12437 13.8462 9.55733 13.976 10 13.976C10.4427 13.976 10.8756 13.8462 11.2453 13.6027C11.615 13.3592 11.9052 13.0127 12.08 12.606C12.1317 12.4852 12.2068 12.3757 12.3008 12.2839C12.3948 12.1921 12.506 12.1197 12.6281 12.0709C12.7501 12.022 12.8805 11.9977 13.0119 11.9993C13.1434 12.0008 13.2732 12.0283 13.394 12.08C13.5148 12.1317 13.6243 12.2068 13.7161 12.3008C13.8079 12.3948 13.8803 12.506 13.9291 12.6281C13.978 12.7501 14.0023 12.8805 14.0007 13.0119C13.9992 13.1434 13.9717 13.2732 13.92 13.394C13.5915 14.1615 13.0449 14.8156 12.3481 15.2753C11.6513 15.7351 10.8348 15.9801 10 15.9801C9.16518 15.9801 8.34873 15.7351 7.65189 15.2753C6.95506 14.8156 6.4085 14.1615 6.08 13.394ZM7 6C7.26522 6 7.51957 6.10536 7.70711 6.29289C7.89464 6.48043 8 6.73478 8 7V9C8 9.26522 7.89464 9.51957 7.70711 9.70711C7.51957 9.89464 7.26522 10 7 10C6.73478 10 6.48043 9.89464 6.29289 9.70711C6.10536 9.51957 6 9.26522 6 9V7C6 6.73478 6.10536 6.48043 6.29289 6.29289C6.48043 6.10536 6.73478 6 7 6ZM13 6C13.2652 6 13.5196 6.10536 13.7071 6.29289C13.8946 6.48043 14 6.73478 14 7V9C14 9.26522 13.8946 9.51957 13.7071 9.70711C13.5196 9.89464 13.2652 10 13 10C12.7348 10 12.4804 9.89464 12.2929 9.70711C12.1054 9.51957 12 9.26522 12 9V7C12 6.73478 12.1054 6.48043 12.2929 6.29289C12.4804 6.10536 12.7348 6 13 6Z" fill="#2FA6A7"/>
</svg>
