<svg width="35" height="29" viewBox="0 0 35 29" fill="none" xmlns="http://www.w3.org/2000/svg">
<path d="M35 3.37502C33.7129 3.94535 32.3302 4.33071 30.8766 4.5049C32.3765 3.60746 33.4986 2.19499 34.0335 0.531056C32.6244 1.36804 31.0822 1.95719 29.4739 2.27289C28.3924 1.11814 26.9599 0.352751 25.3989 0.0955578C23.8378 -0.161635 22.2355 0.103754 20.8407 0.850524C19.4459 1.59729 18.3367 2.78366 17.6852 4.22544C17.0338 5.66721 16.8765 7.28373 17.238 8.82402C14.3827 8.68066 11.5895 7.93854 9.03967 6.64581C6.48981 5.35309 4.24026 3.53866 2.43702 1.32027C1.82044 2.38387 1.46591 3.61703 1.46591 4.93033C1.46522 6.11261 1.75637 7.27678 2.31352 8.31956C2.87067 9.36233 3.67659 10.2515 4.65978 10.9081C3.51954 10.8718 2.40446 10.5637 1.40734 10.0094V10.1019C1.40722 11.7601 1.9808 13.3672 3.03076 14.6507C4.08071 15.9341 5.54237 16.8148 7.16771 17.1432C6.10995 17.4295 5.00096 17.4716 3.92451 17.2665C4.38309 18.6933 5.27635 19.9409 6.47925 20.8348C7.68215 21.7287 9.13446 22.2241 10.6329 22.2515C8.08924 24.2483 4.94786 25.3315 1.71408 25.3267C1.14126 25.3269 0.56891 25.2934 0 25.2265C3.28247 27.337 7.10349 28.4571 11.0059 28.4528C24.2161 28.4528 31.4377 17.5116 31.4377 8.02247C31.4377 7.71418 31.43 7.40281 31.4161 7.09452C32.8209 6.07867 34.0334 4.82073 34.9969 3.37964L35 3.37502Z" fill="#2FA6A7"/>
</svg>
